<?xml version="1.0" standalone="no"?>
<!DOCTYPE svg PUBLIC "-//W3C//DTD SVG 20010904//EN"
 "http://www.w3.org/TR/2001/REC-SVG-20010904/DTD/svg10.dtd">
<svg version="1.0" xmlns="http://www.w3.org/2000/svg"
 width="1280.000000pt" height="720.000000pt" viewBox="0 0 1280.000000 720.000000"
 preserveAspectRatio="xMidYMid meet">

<g transform="translate(0.000000,720.000000) scale(0.100000,-0.100000)"
fill="#000000" stroke="none">
<path d="M0 3600 l0 -3600 6400 0 6400 0 0 3600 0 3600 -6400 0 -6400 0 0
-3600z m4226 2671 c133 -270 485 -472 1079 -620 348 -86 490 -164 526 -289 41
-140 -20 -251 -163 -297 -29 -10 -59 -23 -66 -30 -19 -18 -28 -223 -13 -310
18 -103 62 -216 115 -290 l21 -30 11 131 c22 259 61 344 207 457 101 78 136
97 175 97 37 0 110 -25 140 -48 23 -17 23 -20 9 -53 -18 -44 -76 -95 -124
-108 -21 -6 -66 -11 -101 -11 -85 0 -117 -18 -148 -83 -46 -99 -24 -308 47
-449 51 -101 122 -166 283 -259 330 -191 459 -282 540 -380 105 -127 120 -280
44 -438 -24 -49 -112 -159 -135 -168 -8 -3 -35 9 -61 28 -26 18 -96 66 -157
107 -60 41 -113 79 -117 85 -4 7 -8 63 -8 125 0 134 -9 141 -59 48 -33 -59
-34 -65 -21 -97 26 -66 62 -100 220 -205 234 -155 312 -247 340 -403 14 -79 1
-169 -37 -249 -24 -52 -135 -182 -155 -182 -19 0 -278 194 -279 209 -1 9 -1
78 1 154 3 154 -2 162 -57 104 -43 -45 -55 -73 -56 -129 -1 -71 35 -115 193
-235 184 -140 245 -200 284 -282 29 -62 31 -73 31 -181 0 -111 -1 -117 -36
-191 -39 -80 -88 -144 -120 -154 -13 -5 -42 11 -101 56 -46 35 -95 74 -110 88
l-28 25 0 160 0 160 -31 -30 c-38 -35 -69 -98 -69 -139 0 -16 11 -52 24 -80
23 -50 57 -85 255 -264 51 -46 108 -107 126 -135 119 -182 65 -406 -128 -527
-29 -18 -54 -35 -57 -37 -3 -2 -7 -71 -10 -152 -4 -124 -8 -152 -22 -167 -37
-36 -54 19 -64 210 l-7 127 -39 11 c-22 5 -60 29 -85 52 -129 119 -151 347
-47 503 61 92 55 92 167 11 l97 -71 1 -211 c1 -115 1 -216 0 -222 -4 -27 17
-11 59 45 57 76 81 132 82 191 0 94 -57 169 -217 286 -131 96 -208 179 -252
272 -41 85 -54 165 -41 248 10 70 53 165 95 214 l30 35 109 -74 c60 -40 117
-80 127 -88 15 -13 17 -36 17 -189 0 -95 4 -173 8 -173 13 0 68 62 85 95 45
89 26 172 -56 252 -28 28 -108 88 -177 134 -191 126 -274 225 -311 372 -19 79
-8 193 28 268 31 64 92 139 113 139 6 0 37 -17 68 -38 31 -21 97 -62 145 -92
48 -29 91 -58 95 -64 3 -6 5 -82 4 -168 -2 -103 0 -158 7 -158 19 0 82 63 102
101 37 74 16 153 -58 220 -21 19 -96 70 -168 113 -219 133 -291 201 -352 331
-26 55 -28 70 -28 175 0 105 3 120 28 171 15 31 44 71 63 90 l35 34 42 -23
c23 -13 94 -51 157 -85 63 -33 127 -69 143 -79 l27 -19 0 -135 c0 -74 4 -134
9 -134 16 0 61 42 76 70 19 36 19 91 1 133 -18 43 -68 86 -211 177 -423 271
-548 363 -692 511 -140 142 -251 304 -292 425 -47 141 -47 332 0 489 11 39 23
79 26 91 3 16 -12 38 -64 91 -71 73 -132 111 -493 303 -85 46 -193 108 -240
139 -99 65 -222 179 -292 271 -65 85 -142 246 -163 340 -18 78 -24 237 -10
259 4 8 19 -31 36 -100 17 -67 48 -153 75 -208z m4461 160 c-4 -106 -9 -139
-34 -206 -37 -105 -90 -198 -164 -290 -132 -163 -261 -256 -617 -439 -280
-144 -341 -183 -399 -255 -50 -60 -51 -71 -23 -197 65 -288 17 -517 -146 -693
-37 -40 -138 -133 -223 -206 -86 -73 -169 -147 -186 -165 -16 -17 -65 -63
-108 -102 l-77 -70 -163 100 c-89 55 -177 107 -194 116 l-33 17 0 548 0 549
-37 12 c-72 23 -153 73 -199 122 -48 51 -97 145 -113 216 -10 48 1 56 23 14
24 -47 103 -128 163 -168 181 -120 396 -91 562 77 32 33 66 75 77 94 26 50 38
44 31 -16 -15 -120 -115 -240 -261 -310 l-86 -41 0 -555 0 -554 23 6 c54 16
167 79 220 123 148 122 225 297 214 482 -12 191 -60 240 -233 240 -83 0 -120
19 -168 87 -25 36 -27 44 -16 58 28 33 94 59 152 59 49 1 63 -4 108 -35 92
-65 198 -177 231 -246 43 -91 63 -205 56 -328 l-6 -100 24 30 c34 42 90 159
110 230 9 34 19 116 22 190 7 175 1 190 -97 229 -148 59 -208 180 -150 302 58
118 207 204 465 266 250 60 371 95 495 144 426 169 667 401 720 694 19 108 20
111 32 104 7 -5 9 -47 5 -133z m-4788 -237 c103 -230 250 -376 506 -506 216
-109 306 -182 403 -325 65 -96 171 -317 159 -330 -4 -3 -40 26 -81 64 -85 81
-140 114 -362 216 -87 40 -190 93 -229 118 -202 131 -339 311 -399 525 -25 87
-57 299 -48 309 12 11 19 1 51 -71z m5047 20 c17 -68 -31 -276 -95 -409 -26
-55 -75 -134 -108 -175 -107 -135 -204 -205 -478 -345 -259 -133 -324 -170
-370 -216 -23 -21 -44 -39 -47 -39 -9 0 28 93 74 184 113 228 243 352 477 458
151 69 288 176 380 298 57 77 141 228 141 256 0 24 19 15 26 -12z m-2422 -327
c31 -14 76 -46 100 -72 142 -145 100 -377 -86 -481 -47 -26 -63 -29 -138 -29
-72 0 -92 4 -135 27 -55 28 -122 95 -152 149 -28 53 -25 200 5 259 43 83 123
149 207 171 51 14 140 3 199 -24z m-2504 -461 c110 -73 233 -127 435 -191 241
-77 315 -116 433 -229 48 -45 165 -196 159 -203 -3 -2 -42 16 -88 41 -182 97
-287 129 -503 151 -218 23 -319 63 -443 178 -50 46 -119 139 -152 204 -28 56
-71 189 -71 221 0 22 8 17 78 -49 42 -41 111 -96 152 -123z m4985 122 c-40
-240 -237 -468 -465 -539 -36 -11 -121 -24 -195 -30 -183 -14 -265 -37 -440
-123 -82 -41 -152 -73 -154 -70 -7 7 109 152 174 216 109 107 167 136 463 228
73 23 181 66 240 96 101 51 289 181 341 238 35 37 44 33 36 -16z m-4070 -102
c61 -30 139 -76 175 -104 89 -67 190 -177 190 -206 0 -12 -9 -58 -20 -102 -61
-233 -20 -468 111 -641 22 -29 35 -53 29 -53 -6 0 -37 18 -68 39 -147 99 -206
219 -271 548 -33 165 -58 246 -104 338 -36 74 -108 177 -142 203 -25 20 -32
32 -17 32 4 0 57 -24 117 -54z m3023 -13 c-141 -147 -197 -270 -238 -523 -27
-172 -44 -231 -92 -330 -33 -68 -59 -102 -129 -173 -79 -79 -109 -97 -109 -66
0 6 15 29 34 52 43 54 68 104 97 197 33 104 32 296 -1 415 -12 44 -24 89 -27
101 -10 42 140 191 276 274 60 37 198 100 221 100 8 0 -5 -20 -32 -47z m-4006
-366 c151 -95 321 -149 581 -186 81 -12 183 -33 226 -46 96 -31 206 -100 298
-190 73 -72 74 -71 -37 -39 -44 13 -102 16 -285 15 -252 -2 -328 7 -449 53
-142 54 -274 159 -387 309 -61 81 -111 174 -102 190 3 4 21 -7 41 -25 21 -19
72 -55 114 -81z m5048 69 c-82 -217 -296 -418 -525 -493 -76 -25 -95 -26 -365
-33 -247 -7 -294 -10 -354 -29 -38 -11 -72 -18 -75 -15 -8 8 102 108 173 156
122 84 223 117 431 143 287 36 460 102 645 244 36 28 68 50 72 51 4 0 3 -11
-2 -24z m-4795 -542 c116 -36 204 -46 460 -54 219 -7 273 -12 340 -30 91 -25
247 -98 242 -114 -2 -6 -23 -12 -48 -13 -24 -2 -152 -13 -284 -24 -249 -22
-352 -21 -436 5 -66 20 -147 63 -199 104 -69 55 -148 143 -127 142 1 0 25 -7
52 -16z m4429 -36 c-25 -48 -104 -120 -170 -154 -116 -62 -153 -69 -339 -69
-222 0 -587 25 -582 39 6 20 171 96 252 117 62 16 133 22 320 29 231 8 343 22
445 54 25 8 55 15 68 15 22 1 22 0 6 -31z m-865 -278 c133 -17 195 -58 189
-126 -6 -71 -94 -98 -206 -64 -98 30 -402 155 -402 166 0 25 283 41 419 24z
m-2420 -16 c17 -4 31 -9 31 -13 0 -3 -99 -45 -220 -93 -230 -92 -274 -102
-330 -73 -52 27 -70 97 -34 136 34 38 97 48 315 48 114 1 221 -2 238 -5z m204
-159 c61 -19 75 -35 29 -35 -52 0 -147 -31 -242 -79 -113 -57 -140 -64 -177
-50 -36 14 -73 48 -73 69 0 34 69 83 150 106 60 18 237 11 313 -11z m1988 9
c66 -19 134 -58 143 -80 4 -9 0 -27 -9 -40 -42 -65 -128 -78 -189 -29 -85 68
-125 83 -263 100 -29 4 -53 10 -53 15 0 4 33 17 73 28 90 26 222 28 298 6z
m-197 -141 c78 -39 100 -97 51 -129 -35 -23 -71 -13 -175 46 -48 28 -103 53
-124 57 -52 8 -45 20 22 33 31 7 62 14 67 16 21 7 130 -8 159 -23z m-1631 0
c14 -13 -248 -153 -286 -153 -28 0 -67 45 -67 78 0 36 24 59 76 71 46 11 268
14 277 4z m127 -99 c0 -13 -104 -124 -139 -148 -50 -35 -97 -35 -113 -1 -28
62 32 112 168 139 86 17 84 17 84 10z m1208 -14 c128 -31 162 -55 162 -113 0
-53 -66 -67 -124 -26 -34 24 -136 138 -136 152 0 10 5 9 98 -13z"/>
<path d="M6297 1408 c-73 -69 -96 -171 -58 -255 16 -34 100 -166 118 -183 7
-7 -8 432 -16 454 -7 16 -11 15 -44 -16z"/>
</g>
</svg>
